<?xml version="1.0" encoding="UTF-8" standalone="no"?>
<!-- Created with Inkscape (http://www.inkscape.org/) -->

<svg
   version="1.1"
   id="svg2"
   width="226.34666"
   height="79.613335"
   viewBox="0 0 226.34666 79.613335"
   sodipodi:docname="ANR-logo-2021-sigle.eps"
   xmlns:inkscape="http://www.inkscape.org/namespaces/inkscape"
   xmlns:sodipodi="http://sodipodi.sourceforge.net/DTD/sodipodi-0.dtd"
   xmlns="http://www.w3.org/2000/svg"
   xmlns:svg="http://www.w3.org/2000/svg">
  <defs
     id="defs6" />
  <sodipodi:namedview
     id="namedview4"
     pagecolor="#ffffff"
     bordercolor="#000000"
     borderopacity="0.25"
     inkscape:showpageshadow="2"
     inkscape:pageopacity="0.0"
     inkscape:pagecheckerboard="0"
     inkscape:deskcolor="#d1d1d1" />
  <g
     id="g8"
     inkscape:groupmode="layer"
     inkscape:label="ink_ext_XXXXXX"
     transform="matrix(1.3333333,0,0,-1.3333333,0,79.613333)">
    <g
       id="g10"
       transform="scale(0.1)">
      <path
         d="m 1596.49,577.16 c -11.87,0 -23.69,-2.64 -34.73,-7.894 -19.55,-9.293 -34.31,-25.641 -41.56,-46.039 -7.26,-20.395 -6.14,-42.399 3.16,-61.946 9.29,-19.554 25.64,-34.328 46.04,-41.578 20.4,-7.258 42.4,-6.152 61.94,3.16 40.37,19.188 57.59,67.629 38.41,107.996 v 0 c -9.29,19.555 -25.64,34.321 -46.04,41.567 -8.88,3.16 -18.06,4.734 -27.22,4.734 z m 0.13,-182.234 c -11.42,0 -22.86,1.957 -33.94,5.898 -25.44,9.047 -45.83,27.461 -57.42,51.848 -23.93,50.344 -2.44,110.766 47.9,134.695 50.33,23.918 110.76,2.446 134.69,-47.898 v 0 c 23.92,-50.356 2.43,-110.774 -47.9,-134.703 -13.77,-6.543 -28.52,-9.84 -43.33,-9.84"
         style="fill:#4d7bc7;fill-opacity:1;fill-rule:nonzero;stroke:none"
         id="path12" />
      <path
         d="m 1596.52,532.883 c -5.39,0 -10.76,-1.192 -15.77,-3.578 -18.32,-8.707 -26.15,-30.711 -17.44,-49.043 8.71,-18.324 30.72,-26.129 49.03,-17.434 8.89,4.215 15.6,11.641 18.88,20.906 3.3,9.266 2.79,19.254 -1.43,28.125 v 0.012 c -4.22,8.871 -11.65,15.574 -20.9,18.871 -4.04,1.438 -8.21,2.141 -12.37,2.141 z m 0.12,-93.653 c -21.27,0 -41.7,11.985 -51.43,32.43 -13.44,28.313 -1.36,62.281 26.93,75.742 13.72,6.516 29.14,7.309 43.46,2.219 14.3,-5.094 25.77,-15.445 32.28,-29.152 v 0 c 6.52,-13.715 7.31,-29.145 2.23,-43.446 -5.09,-14.304 -15.44,-25.777 -29.16,-32.293 -7.85,-3.726 -16.15,-5.5 -24.31,-5.5"
         style="fill:#234ea8;fill-opacity:1;fill-rule:nonzero;stroke:none"
         id="path14" />
      <path
         d="m 265.965,91.0664 c -10.817,-6.6133 -22.531,-9.9101 -35.152,-9.9101 -22.852,0 -40.883,8.1015 -54.106,24.3397 -13.227,16.223 -19.84,36.961 -19.84,62.203 0,16.824 3.457,31.699 10.371,44.641 6.914,12.906 17.586,22.531 32.02,28.844 14.41,6.308 32.457,8.863 54.082,7.656 6.012,-0.602 12.019,-1.047 18.031,-1.348 1.629,-0.082 2.957,-0.461 4.52,-0.609 V 122.621 c 0,-8.016 0.519,-15.578 1.351,-22.8632 -3.656,-3.3086 -7.387,-6.3125 -11.277,-8.6914 z m 218.187,-4.5039 c -21.625,-10.2266 -36.519,-10.3672 -44.621,-0.4609 -8.117,9.9297 -12.179,29.6054 -12.179,59.0704 v 170.394 c 0,47.473 -14.129,85.2 -42.368,113.153 -28.257,27.937 -72.433,41.926 -132.546,41.926 -26.45,0 -58.75,-2.852 -96.915,-8.563 C 117.336,456.355 77.8203,448.699 36.9609,439.09 V 305.656 h 4.5039 c 42.0665,34.25 81.7382,63.254 119.0192,86.989 37.266,23.753 64.918,35.613 82.95,35.613 12.019,0 20.418,-7.656 25.242,-22.973 4.804,-15.336 7.215,-41.64 7.215,-78.906 v -50.731 c -2.219,0.852 -4.418,1.711 -6.774,2.497 -13.523,4.519 -27.351,7.957 -41.461,10.371 -14.129,2.39 -27.496,3.617 -40.136,3.617 -33.063,1.789 -64.016,-3.156 -92.8559,-14.895 C 65.8008,265.52 42.832,248.094 25.6875,224.965 8.5625,201.809 0,175.219 0,145.172 0,120.512 5.54688,97.0742 16.6836,74.8477 27.7969,52.5977 44.4766,34.5703 66.707,20.7422 88.9375,6.91406 115.406,0 146.055,0 c 28.843,0 54.105,5.86719 75.73,17.5859 21.649,11.7188 38.61,25.8477 50.953,42.3672 3.621,4.875 6.719,9.6289 9.539,14.3164 4.786,-16.2968 12.211,-30.2812 22.457,-41.8086 C 323.969,10.8359 350.719,0 384.984,0 c 29.446,0 53.043,7.82031 70.77,23.457 17.726,15.6133 27.797,35.7539 30.207,60.3946 l -1.809,2.7109"
         style="fill:#4d7bc7;fill-opacity:1;fill-rule:nonzero;stroke:none"
         id="path16" />
      <path
         d="m 1008.88,21.6445 c -7.21,27.0547 -12.919,50.4883 -17.122,70.3282 -4.219,19.8363 -6.313,41.1603 -6.313,64.0113 V 320.07 c 0,47.473 -14.129,84.45 -42.386,110.903 -28.258,26.449 -63.711,39.672 -106.379,39.672 -39.094,0 -72.293,-10.672 -99.629,-32.016 -19.09,-14.899 -34.211,-31.805 -45.543,-50.645 v 77.254 H 540.949 515.707 v -3.617 l 2.691,-9.91 c 7.215,-27.051 12.786,-50.484 16.684,-70.32 3.918,-19.84 5.867,-41.184 5.867,-64.016 V 155.984 c 0,-22.851 -1.949,-44.175 -5.867,-64.0113 -3.898,-19.8399 -9.469,-43.2735 -16.684,-70.3282 l -2.691,-9.9257 V 8.12109 h 25.242 150.559 26.148 v 3.59771 l -2.695,9.9257 c -7.215,27.0547 -12.941,50.4883 -17.141,70.3282 -4.203,19.8363 -6.312,41.1603 -6.312,64.0113 v 200.762 c 24.984,14.547 48.75,21.93 71.226,21.93 21.047,-0.602 38.329,-7.215 51.856,-19.84 13.527,-12.617 20.281,-32.457 20.281,-59.488 V 155.984 c 0,-22.851 -1.949,-44.175 -5.851,-64.0113 -3.918,-19.8399 -9.485,-43.2735 -16.68,-70.3282 l -2.715,-9.9257 V 8.12109 h 25.246 150.574 26.155 v 3.59771 l -2.72,9.9257"
         style="fill:#4d7bc7;fill-opacity:1;fill-rule:nonzero;stroke:none"
         id="path18" />
      <path
         d="m 1333.89,471.992 c -26.14,-8.121 -47.93,-22.39 -65.36,-42.828 -14,-16.406 -25.96,-35.652 -36.07,-57.473 v 93.547 h -150.56 -25.24 v -3.617 l 2.69,-9.91 c 7.22,-27.051 12.78,-50.484 16.68,-70.32 3.92,-19.84 5.87,-41.184 5.87,-64.016 V 155.984 c 0,-22.851 -1.95,-44.175 -5.87,-64.0113 -3.9,-19.8399 -9.46,-43.2735 -16.68,-70.3282 l -2.69,-9.9257 V 8.12109 h 25.24 150.56 26.15 v 3.59771 l -2.7,9.9257 c -7.21,27.0547 -12.94,50.4883 -17.14,70.3282 -4.2,19.8363 -6.31,41.1603 -6.31,64.0113 v 193.063 c 17.78,10.641 35.66,15.914 53.66,15.66 21.32,-0.32 41.3,-5.871 59.95,-16.684 18.61,-10.808 35.46,-24.66 50.49,-41.48 h 4.5 l 23.46,160.484 c -34.27,11.418 -64.48,13.086 -90.63,4.965"
         style="fill:#f03c36;fill-opacity:1;fill-rule:nonzero;stroke:none"
         id="path20" />
    </g>
  </g>
</svg>
