<?xml version="1.0" encoding="UTF-8" standalone="no"?>
<!-- Created with Inkscape (http://www.inkscape.org/) -->

<svg
   width="73.904961mm"
   height="103.41007mm"
   viewBox="0 0 73.904961 103.41007"
   version="1.1"
   id="svg1"
   xml:space="preserve"
   inkscape:version="1.3.2 (091e20e, 2023-11-25, custom)"
   sodipodi:docname="PCMI.svg"
   xmlns:inkscape="http://www.inkscape.org/namespaces/inkscape"
   xmlns:sodipodi="http://sodipodi.sourceforge.net/DTD/sodipodi-0.dtd"
   xmlns="http://www.w3.org/2000/svg"
   xmlns:svg="http://www.w3.org/2000/svg"><sodipodi:namedview
     id="namedview1"
     pagecolor="#ffffff"
     bordercolor="#000000"
     borderopacity="0.25"
     inkscape:showpageshadow="2"
     inkscape:pageopacity="0.0"
     inkscape:pagecheckerboard="0"
     inkscape:deskcolor="#d1d1d1"
     inkscape:document-units="mm"
     inkscape:zoom="1.0343421"
     inkscape:cx="-109.24819"
     inkscape:cy="171.60667"
     inkscape:window-width="1920"
     inkscape:window-height="1017"
     inkscape:window-x="1912"
     inkscape:window-y="-8"
     inkscape:window-maximized="1"
     inkscape:current-layer="layer1" /><defs
     id="defs1"><inkscape:path-effect
       effect="powerclip"
       id="path-effect264"
       is_visible="true"
       lpeversion="1"
       inverse="true"
       flatten="false"
       hide_clip="false"
       message="Utilise la règle de remplissage « fill-rule: evenodd » de la boîte de dialogue &lt;b&gt;Fond et contour&lt;/b&gt; en l'absence de résultat de mise à plat après une conversion en chemin." /><clipPath
       clipPathUnits="userSpaceOnUse"
       id="clipPath261"><g
         id="g264"
         style="display:none"><circle
           style="fill:#ffa626;fill-opacity:1;stroke:none;stroke-width:0.843866"
           id="circle262"
           cx="74.802307"
           cy="133.04558"
           r="5.1514716"
           d="m 79.953779,133.04558 a 5.1514716,5.1514716 0 0 1 -5.151472,5.15147 5.1514716,5.1514716 0 0 1 -5.151471,-5.15147 5.1514716,5.1514716 0 0 1 5.151471,-5.15147 5.1514716,5.1514716 0 0 1 5.151472,5.15147 z" /><circle
           style="fill:#ffa626;fill-opacity:1;stroke:none;stroke-width:0.843866"
           id="circle263"
           cx="85.393021"
           cy="122.81363"
           r="5.1514716"
           d="m 90.544492,122.81363 a 5.1514716,5.1514716 0 0 1 -5.151471,5.15147 5.1514716,5.1514716 0 0 1 -5.151472,-5.15147 5.1514716,5.1514716 0 0 1 5.151472,-5.15147 5.1514716,5.1514716 0 0 1 5.151471,5.15147 z" /><circle
           style="fill:#ffa626;fill-opacity:1;stroke:none;stroke-width:0.843866"
           id="circle264"
           cx="95.983734"
           cy="133.23743"
           r="5.1514716"
           d="m 101.13521,133.23743 a 5.1514716,5.1514716 0 0 1 -5.151476,5.15147 5.1514716,5.1514716 0 0 1 -5.151471,-5.15147 5.1514716,5.1514716 0 0 1 5.151471,-5.15147 5.1514716,5.1514716 0 0 1 5.151476,5.15147 z" /></g><path
         id="lpe_path-effect264"
         class="powerclip"
         d="M 43.219067,91.244797 H 127.12403 V 175.05564 H 43.219067 Z m 36.734712,41.800783 a 5.1514716,5.1514716 0 0 0 -5.151472,-5.15147 5.1514716,5.1514716 0 0 0 -5.151471,5.15147 5.1514716,5.1514716 0 0 0 5.151471,5.15147 5.1514716,5.1514716 0 0 0 5.151472,-5.15147 z m 10.590713,-10.23195 a 5.1514716,5.1514716 0 0 0 -5.151471,-5.15147 5.1514716,5.1514716 0 0 0 -5.151472,5.15147 5.1514716,5.1514716 0 0 0 5.151472,5.15147 5.1514716,5.1514716 0 0 0 5.151471,-5.15147 z m 10.590718,10.4238 a 5.1514716,5.1514716 0 0 0 -5.151476,-5.15147 5.1514716,5.1514716 0 0 0 -5.151471,5.15147 5.1514716,5.1514716 0 0 0 5.151471,5.15147 5.1514716,5.1514716 0 0 0 5.151476,-5.15147 z" /></clipPath></defs><g
     inkscape:label="Calque 1"
     inkscape:groupmode="layer"
     id="layer1"
     transform="translate(-138.1774,-95.699481)"><path
       d="m 95.805984,96.244837 c -1.437959,0 -1.835501,0.113408 -2.81895,0.804602 -1.316928,0.925574 -2.329775,2.534512 -2.335775,3.711401 -0.01668,3.11231 -2.495859,5.93107 -5.221386,5.93607 -1.472309,0.003 -2.855563,0.59292 -3.944462,1.68258 -1.102069,1.10284 -1.236775,1.47358 -1.804025,4.95371 -0.212949,1.30641 -1.73538,3.00731 -3.187919,3.56205 -1.661569,0.63455 -3.560111,0.41483 -4.96869,-0.57516 -1.446258,-1.01647 -1.977462,-1.99434 -2.389001,-4.39714 -0.58025,-3.38791 -2.316388,-5.0798 -5.212086,-5.0798 -4.686315,0 -6.930386,5.43338 -3.611148,8.74314 1.060748,1.05772 2.722081,1.6924 4.428669,1.6924 0.7255,0 2.372689,0.87849 3.054078,1.62833 3.343577,3.67947 0.44593,9.44604 -4.455026,8.8656 -2.671576,-0.31641 -4.280947,-2.0464 -4.743896,-5.10098 -0.39106,-2.58023 -1.204339,-3.86123 -3.015836,-4.74751 -1.20874,-0.59138 -1.692244,-0.68986 -2.761073,-0.56327 -2.779866,0.32924 -4.619836,2.41296 -4.600236,5.2095 0.0057,0.81202 0.201524,1.82478 0.443384,2.29133 0.602429,1.16211 2.235057,2.4406 3.348116,2.62155 3.245548,0.52764 3.786602,0.71304 4.835881,1.65984 1.198738,1.08167 1.784971,2.24266 1.786971,3.53932 0.0025,1.47714 0.523119,2.84613 1.488799,3.91501 1.010468,1.11848 1.739487,1.42878 4.301545,1.83038 2.879168,0.4513 4.522603,2.07198 4.738213,4.67206 0.15178,1.83021 -0.459542,3.51083 -1.660881,4.56562 -0.971559,0.85305 -1.960399,1.22693 -3.970818,1.50016 -1.667768,0.22666 -2.491869,0.6538 -3.521748,1.82677 -0.75324,0.85788 -1.37356,2.36096 -1.37356,3.32796 0,1.65922 1.411548,3.85514 3.012736,4.68653 1.052519,0.5465 3.490899,0.55218 4.524789,0.0103 0.865859,-0.45377 2.027388,-1.61202 2.455148,-2.44791 0.148939,-0.29104 0.351718,-1.12449 0.450618,-1.85209 0.26549,-1.95315 0.62978,-2.95836 1.405599,-3.88038 1.484069,-1.76371 4.3979,-2.31376 6.602699,-1.24644 3.625626,1.75514 3.70023,7.21172 0.127124,9.30538 -0.44496,0.26073 -1.563579,0.59244 -2.485638,0.73742 -2.340597,0.36801 -2.530885,0.44519 -3.691764,1.49397 -0.736089,0.66502 -1.149683,1.33895 -1.444873,2.35438 -0.37297,1.28159 -0.374121,1.56038 -0.0093,2.81533 0.49181,1.69175 1.740115,2.99135 3.367753,3.50728 2.451938,0.77722 5.036281,-0.29291 6.216159,-2.57452 0.23721,-0.45873 0.526969,-1.60541 0.643889,-2.54817 0.241849,-1.95013 1.176404,-3.53794 2.556433,-4.34392 0.462159,-0.26992 1.65067,-0.61362 2.641699,-0.76378 3.408987,-0.51651 4.989856,-2.0254 5.374866,-5.12992 0.420459,-3.3903 2.122403,-5.17865 5.09788,-5.35729 3.17944,-0.19088 5.218949,1.70709 5.727289,5.32939 0.44988,3.20568 2.31399,5.00744 5.18109,5.00744 2.98902,0 5.15938,-2.14687 5.15938,-5.10304 0,-3.02965 -2.41635,-5.29167 -5.65289,-5.29167 -1.95847,0 -4.07631,-1.84453 -4.69636,-4.09019 -0.59884,-2.1688 0.67332,-4.93008 2.73008,-5.92574 3.18024,-1.53952 6.85738,0.11185 7.5861,3.40651 0.14426,0.65221 0.39171,1.76198 0.54983,2.466 0.33093,1.47348 0.85483,2.2613 2.04949,3.0825 2.5258,1.73621 6.11176,0.84843 7.49051,-1.85415 0.61744,-1.21028 0.69553,-3.31286 0.1695,-4.57181 -0.72107,-1.72579 -2.93596,-3.08099 -5.06689,-3.10059 -1.72782,-0.0159 -3.99355,-1.61418 -4.61315,-3.25406 -0.37695,-0.99773 -0.34153,-3.61817 0.0584,-4.30413 1.17802,-2.02059 2.19441,-2.6684 4.94647,-3.15226 2.5086,-0.44105 3.67956,-1.16448 4.50567,-2.78381 0.61744,-1.21028 0.69553,-3.31286 0.1695,-4.57182 -0.79493,-1.90254 -3.42543,-3.33863 -5.42707,-2.96312 -2.67114,0.50111 -4.18022,2.16865 -4.53254,5.00951 -0.27295,2.20088 -0.91743,3.44222 -2.312,4.45244 -1.27571,0.92412 -3.04768,1.20476 -4.73718,0.74983 -1.98998,-0.53585 -3.79426,-3.09735 -3.79926,-5.39244 -0.002,-0.95764 -0.66719,-2.53214 -1.403009,-3.32021 -0.89445,-0.95796 -1.86832,-1.36106 -3.910355,-1.61747 -2.422977,-0.30424 -3.649339,-1.09693 -4.577498,-2.95951 -0.75494,-1.51496 -0.859251,-2.56766 -0.392741,-3.961 0.758899,-2.26664 2.428484,-3.46563 5.316471,-3.81734 2.031123,-0.24736 3.656283,-1.29052 4.398692,-2.82412 1.15481,-2.38552 0.41782,-5.168948 -1.770949,-6.690022 -0.98108,-0.681789 -1.38986,-0.796851 -2.821529,-0.796851 z"
       style="fill:#0000fe"
       id="path260"
       clip-path="url(#clipPath261)"
       inkscape:path-effect="#path-effect264"
       inkscape:original-d="m 95.805984,96.244837 c -1.437959,0 -1.835501,0.113408 -2.81895,0.804602 -1.316928,0.925574 -2.329775,2.534512 -2.335775,3.711401 -0.01668,3.11231 -2.495859,5.93107 -5.221386,5.93607 -1.472309,0.003 -2.855563,0.59292 -3.944462,1.68258 -1.102069,1.10284 -1.236775,1.47358 -1.804025,4.95371 -0.212949,1.30641 -1.73538,3.00731 -3.187919,3.56205 -1.661569,0.63455 -3.560111,0.41483 -4.96869,-0.57516 -1.446258,-1.01647 -1.977462,-1.99434 -2.389001,-4.39714 -0.58025,-3.38791 -2.316388,-5.0798 -5.212086,-5.0798 -4.686315,0 -6.930386,5.43338 -3.611148,8.74314 1.060748,1.05772 2.722081,1.6924 4.428669,1.6924 0.7255,0 2.372689,0.87849 3.054078,1.62833 3.343577,3.67947 0.44593,9.44604 -4.455026,8.8656 -2.671576,-0.31641 -4.280947,-2.0464 -4.743896,-5.10098 -0.39106,-2.58023 -1.204339,-3.86123 -3.015836,-4.74751 -1.20874,-0.59138 -1.692244,-0.68986 -2.761073,-0.56327 -2.779866,0.32924 -4.619836,2.41296 -4.600236,5.2095 0.0057,0.81202 0.201524,1.82478 0.443384,2.29133 0.602429,1.16211 2.235057,2.4406 3.348116,2.62155 3.245548,0.52764 3.786602,0.71304 4.835881,1.65984 1.198738,1.08167 1.784971,2.24266 1.786971,3.53932 0.0025,1.47714 0.523119,2.84613 1.488799,3.91501 1.010468,1.11848 1.739487,1.42878 4.301545,1.83038 2.879168,0.4513 4.522603,2.07198 4.738213,4.67206 0.15178,1.83021 -0.459542,3.51083 -1.660881,4.56562 -0.971559,0.85305 -1.960399,1.22693 -3.970818,1.50016 -1.667768,0.22666 -2.491869,0.6538 -3.521748,1.82677 -0.75324,0.85788 -1.37356,2.36096 -1.37356,3.32796 0,1.65922 1.411548,3.85514 3.012736,4.68653 1.052519,0.5465 3.490899,0.55218 4.524789,0.0103 0.865859,-0.45377 2.027388,-1.61202 2.455148,-2.44791 0.148939,-0.29104 0.351718,-1.12449 0.450618,-1.85209 0.26549,-1.95315 0.62978,-2.95836 1.405599,-3.88038 1.484069,-1.76371 4.3979,-2.31376 6.602699,-1.24644 3.625626,1.75514 3.70023,7.21172 0.127124,9.30538 -0.44496,0.26073 -1.563579,0.59244 -2.485638,0.73742 -2.340597,0.36801 -2.530885,0.44519 -3.691764,1.49397 -0.736089,0.66502 -1.149683,1.33895 -1.444873,2.35438 -0.37297,1.28159 -0.374121,1.56038 -0.0093,2.81533 0.49181,1.69175 1.740115,2.99135 3.367753,3.50728 2.451938,0.77722 5.036281,-0.29291 6.216159,-2.57452 0.23721,-0.45873 0.526969,-1.60541 0.643889,-2.54817 0.241849,-1.95013 1.176404,-3.53794 2.556433,-4.34392 0.462159,-0.26992 1.65067,-0.61362 2.641699,-0.76378 3.408987,-0.51651 4.989856,-2.0254 5.374866,-5.12992 0.420459,-3.3903 2.122403,-5.17865 5.09788,-5.35729 3.17944,-0.19088 5.218949,1.70709 5.727289,5.32939 0.44988,3.20568 2.31399,5.00744 5.18109,5.00744 2.98902,0 5.15938,-2.14687 5.15938,-5.10304 0,-3.02965 -2.41635,-5.29167 -5.65289,-5.29167 -1.95847,0 -4.07631,-1.84453 -4.69636,-4.09019 -0.59884,-2.1688 0.67332,-4.93008 2.73008,-5.92574 3.18024,-1.53952 6.85738,0.11185 7.5861,3.40651 0.14426,0.65221 0.39171,1.76198 0.54983,2.466 0.33093,1.47348 0.85483,2.2613 2.04949,3.0825 2.5258,1.73621 6.11176,0.84843 7.49051,-1.85415 0.61744,-1.21028 0.69553,-3.31286 0.1695,-4.57181 -0.72107,-1.72579 -2.93596,-3.08099 -5.06689,-3.10059 -1.72782,-0.0159 -3.99355,-1.61418 -4.61315,-3.25406 -0.37695,-0.99773 -0.34153,-3.61817 0.0584,-4.30413 1.17802,-2.02059 2.19441,-2.6684 4.94647,-3.15226 2.5086,-0.44105 3.67956,-1.16448 4.50567,-2.78381 0.61744,-1.21028 0.69553,-3.31286 0.1695,-4.57182 -0.79493,-1.90254 -3.42543,-3.33863 -5.42707,-2.96312 -2.67114,0.50111 -4.18022,2.16865 -4.53254,5.00951 -0.27295,2.20088 -0.91743,3.44222 -2.312,4.45244 -1.27571,0.92412 -3.04768,1.20476 -4.73718,0.74983 -1.98998,-0.53585 -3.79426,-3.09735 -3.79926,-5.39244 -0.002,-0.95764 -0.66719,-2.53214 -1.403009,-3.32021 -0.89445,-0.95796 -1.86832,-1.36106 -3.910355,-1.61747 -2.422977,-0.30424 -3.649339,-1.09693 -4.577498,-2.95951 -0.75494,-1.51496 -0.859251,-2.56766 -0.392741,-3.961 0.758899,-2.26664 2.428484,-3.46563 5.316471,-3.81734 2.031123,-0.24736 3.656283,-1.29052 4.398692,-2.82412 1.15481,-2.38552 0.41782,-5.168948 -1.770949,-6.690022 -0.98108,-0.681789 -1.38986,-0.796851 -2.821529,-0.796851 z"
       transform="translate(89.958338)" /><circle
       style="fill:#0000fe;fill-opacity:1;stroke:none;stroke-width:0.843866"
       id="path259-26"
       cx="164.82535"
       cy="100.85095"
       r="5.1514716" /><path
       d="m 141.91639,189.35989 c 0,-5.36232 -0.077,-10.6606 -0.17112,-11.77396 l -0.17111,-2.0243 h 0.83257 0.83258 v 1.4552 c 0,0.80038 0.0632,1.45522 0.14037,1.45522 0.0772,0 0.51242,-0.42373 0.96714,-0.94164 1.13175,-1.289 2.67094,-2.01444 4.60313,-2.16954 4.41603,-0.35448 7.46539,2.70806 7.73215,7.76556 0.29142,5.52502 -2.69914,9.37148 -7.28272,9.36706 -2.27887,-0.002 -3.49554,-0.43936 -4.77014,-1.71396 l -1.12535,-1.12535 v 4.72768 4.72769 h -0.79375 -0.79375 z m 9.79968,1.21685 c 3.14316,-1.58501 4.36468,-6.86241 2.48076,-10.71782 -1.77826,-3.63918 -5.98644,-4.31382 -8.87713,-1.42314 -0.7589,0.7589 -1.33865,1.63059 -1.51987,2.28523 -0.44339,1.6016 -0.37426,5.78264 0.11497,6.95381 1.26088,3.01846 4.89178,4.36909 7.80127,2.90192 z m 13.49785,1.46109 c -1.67308,-0.5907 -3.50552,-2.51771 -4.23471,-4.45329 -0.84221,-2.23557 -0.69067,-5.71927 0.33558,-7.71458 0.89718,-1.74435 2.12788,-2.97948 3.78047,-3.79405 1.09099,-0.53775 1.69125,-0.63901 3.80865,-0.64247 3.44398,-0.006 4.58254,0.4978 4.08111,1.80451 -0.13185,0.34359 -0.26759,0.3485 -1.01393,0.0366 -1.38642,-0.57928 -3.43003,-0.74731 -4.8745,-0.40079 -2.85811,0.68565 -4.7341,3.1025 -5.00237,6.44458 -0.44667,5.56456 3.82631,9.02541 9.18026,7.43546 1.44502,-0.42913 1.84727,-0.29789 1.85871,0.6064 0.0125,0.98707 -5.66645,1.47298 -7.91927,0.67759 z m 12.68582,-7.87724 c 0,-4.43838 -0.004,-8.15909 -0.008,-8.26824 -0.005,-0.10914 0.29313,-0.23611 0.66146,-0.28215 0.55776,-0.0697 0.67521,0.0298 0.70276,0.59531 0.0182,0.37347 0.0628,0.79809 0.0992,0.94362 0.0364,0.14552 0.081,0.44005 0.0992,0.6545 0.0207,0.24454 0.46697,-0.044 1.19689,-0.77392 2.70149,-2.70149 7.03863,-2.21043 8.66725,0.98132 l 0.37228,0.72961 1.02207,-1.22273 c 0.56214,-0.6725 1.51084,-1.44469 2.10823,-1.71598 2.2011,-0.9996 5.12065,-0.41305 6.58068,1.32209 1.28104,1.52245 1.51693,2.97384 1.51693,9.33355 v 5.77281 h -0.79375 -0.79375 v -5.27864 c 0,-2.90325 -0.12968,-5.88329 -0.28817,-6.62231 -0.88957,-4.14795 -5.64053,-5.00266 -7.9106,-1.42312 l -0.79707,1.25684 v 6.03362 6.03361 h -0.92604 -0.92604 l -0.001,-5.88697 c -8.2e-4,-3.23784 -0.12277,-6.32367 -0.27101,-6.8574 -0.1498,-0.53932 -0.67556,-1.32692 -1.1835,-1.77289 -1.68127,-1.47619 -3.97405,-1.36523 -5.65011,0.27344 -1.69978,1.66185 -1.74909,1.88557 -1.84179,8.35685 l -0.0843,5.88697 h -0.77556 -0.77556 z m 29.10417,-0.26458 v -8.33438 h 0.79375 0.79375 v 8.33438 8.33437 h -0.79375 -0.79375 z m -0.0135,-12.05208 c -0.54766,-0.54767 -0.51911,-1.29025 0.0783,-2.03699 0.33615,-0.42016 1.31996,-0.42766 1.73439,-0.0132 0.51703,0.51702 0.39237,2.00506 -0.19427,2.31902 -0.72985,0.39061 -1.00466,0.34497 -1.61843,-0.2688 z"
       style="fill:#000000"
       id="path1" /><circle
       style="fill:#ffa626;fill-opacity:1;stroke:none;stroke-width:0.843866"
       id="path259"
       cx="143.53328"
       cy="143.34853"
       r="5.1514716" /><circle
       style="fill:#ffa626;fill-opacity:1;stroke:none;stroke-width:0.843866"
       id="path259-0"
       cx="175.35138"
       cy="143.34853"
       r="5.1514716" /><circle
       style="fill:#0000fe;fill-opacity:1;stroke:none;stroke-width:0.843866"
       id="path259-2"
       cx="185.98207"
       cy="164.57672"
       r="5.1514716" /><circle
       style="fill:#ffa626;fill-opacity:1;stroke:none;stroke-width:0.843866"
       id="circle259"
       cx="196.66234"
       cy="111.61897"
       r="5.1514716" /></g></svg>
