<?xml version="1.0" encoding="UTF-8" standalone="no"?>
<!-- Created with Inkscape (http://www.inkscape.org/) -->

<svg
   xmlns:dc="http://purl.org/dc/elements/1.1/"
   xmlns:cc="http://creativecommons.org/ns#"
   xmlns:rdf="http://www.w3.org/1999/02/22-rdf-syntax-ns#"
   xmlns:svg="http://www.w3.org/2000/svg"
   xmlns="http://www.w3.org/2000/svg"
   xmlns:xlink="http://www.w3.org/1999/xlink"
   xmlns:sodipodi="http://sodipodi.sourceforge.net/DTD/sodipodi-0.dtd"
   xmlns:inkscape="http://www.inkscape.org/namespaces/inkscape"
   width="58.27021mm"
   height="32.38493mm"
   viewBox="0 0 58.27021 32.38493"
   version="1.1"
   id="svg1322"
   inkscape:version="0.92.5 (2060ec1f9f, 2020-04-08)"
   sodipodi:docname="ISMO.svg">
  <defs
     id="defs1316">
    <linearGradient
       inkscape:collect="always"
       id="linearGradient1881">
      <stop
         style="stop-color:#ff9500;stop-opacity:1;"
         offset="0"
         id="stop1877" />
      <stop
         style="stop-color:#ff9500;stop-opacity:0;"
         offset="1"
         id="stop1879" />
    </linearGradient>
    <linearGradient
       inkscape:collect="always"
       xlink:href="#linearGradient1881"
       id="linearGradient1883"
       x1="32.847862"
       y1="134.13354"
       x2="91.118073"
       y2="134.13354"
       gradientUnits="userSpaceOnUse"
       gradientTransform="translate(1.0394345,37.703125)" />
  </defs>
  <sodipodi:namedview
     id="base"
     pagecolor="#ffffff"
     bordercolor="#666666"
     borderopacity="1.0"
     inkscape:pageopacity="0.0"
     inkscape:pageshadow="2"
     inkscape:zoom="2.8"
     inkscape:cx="-4.4232699"
     inkscape:cy="139.53485"
     inkscape:document-units="mm"
     inkscape:current-layer="layer1"
     showgrid="false"
     inkscape:window-width="1848"
     inkscape:window-height="1016"
     inkscape:window-x="72"
     inkscape:window-y="27"
     inkscape:window-maximized="1" />
  <metadata
     id="metadata1319">
    <rdf:RDF>
      <cc:Work
         rdf:about="">
        <dc:format>image/svg+xml</dc:format>
        <dc:type
           rdf:resource="http://purl.org/dc/dcmitype/StillImage" />
        <dc:title></dc:title>
      </cc:Work>
    </rdf:RDF>
  </metadata>
  <g
     inkscape:label="Layer 1"
     inkscape:groupmode="layer"
     id="layer1"
     transform="translate(-33.887299,-162.32468)">
    <g
       id="g1906">
      <path
         sodipodi:nodetypes="sccccccccccccccscccccccccccscscccccccccccccccccccccccccscccccccccccccccccccsccsccccccccccccccccccccccccccccccccccccccccccccccccsccscccccccccccscsccccccccsccssscccccccccccscccccccccccccsccsc"
         inkscape:connector-curvature="0"
         id="path1293"
         d="m 42.180605,179.9912 c 2.65e-4,-0.0313 0.09347,-0.8325 0.206939,-1.78044 0.139567,-1.16601 0.19527,-1.73063 0.172198,-1.74544 -0.03937,-0.0253 -0.253023,-0.0686 -0.263112,-0.0534 -0.0037,0.006 -0.195061,0.50046 -0.425206,1.09964 -0.230146,0.59917 -0.428125,1.10095 -0.43996,1.11507 -0.01553,0.0185 -0.54623,-0.14411 -0.607761,-0.18624 -0.0037,-0.002 0.197527,-0.52351 0.447138,-1.15775 0.24961,-0.63425 0.453842,-1.1535 0.453845,-1.1539 2e-6,-2.7e-4 -0.05126,-0.0283 -0.113917,-0.0621 -0.08922,-0.048 -0.130228,-0.0539 -0.189161,-0.0271 -0.04199,0.0191 -0.764201,0.9699 -1.634008,2.15111 -0.857319,1.16426 -1.575554,2.11071 -1.596076,2.10322 -0.06698,-0.0244 -0.82447,-0.5729 -0.824058,-0.59668 2.31e-4,-0.0127 0.724596,-0.99277 1.609723,-2.17788 0.885124,-1.18511 1.609315,-2.16649 1.609315,-2.18086 0,-0.052 -0.192281,-0.20887 -0.233823,-0.19082 -0.02342,0.0102 -0.45053,0.34865 -0.949121,0.75217 -0.498595,0.40352 -0.922973,0.7327 -0.943071,0.7315 -0.02011,-0.001 -0.122851,-0.10472 -0.228348,-0.23004 -0.187016,-0.22215 -0.190273,-0.22931 -0.13008,-0.28563 0.03397,-0.0318 0.442217,-0.36212 0.907246,-0.7341 0.465026,-0.37199 0.864653,-0.69385 0.88805,-0.71523 0.05892,-0.0539 -0.04896,-0.28765 -0.122674,-0.26586 -0.02748,0.008 -1.132428,0.47837 -2.455466,1.045 -1.323033,0.56663 -2.418911,1.03282 -2.435283,1.03596 -0.03189,0.006 -0.463407,-0.91213 -0.439743,-0.9358 0.0078,-0.008 1.125503,-0.49869 2.483863,-1.09094 1.358358,-0.59225 2.473397,-1.08047 2.477863,-1.08494 0.015,-0.015 -0.05798,-0.24836 -0.07765,-0.24836 -0.01069,0 -0.545788,0.0741 -1.189101,0.16467 -0.643316,0.0906 -1.186307,0.15828 -1.206648,0.15047 -0.02035,-0.008 -0.06345,-0.14285 -0.09579,-0.30009 -0.05672,-0.27577 -0.05672,-0.28786 0,-0.34173 0.0462,-0.0439 0.299252,-0.0857 1.180727,-0.19513 1.002276,-0.12444 1.127916,-0.14653 1.178108,-0.20711 0.0309,-0.0373 0.05651,-0.10498 0.05691,-0.15042 l 7.94e-4,-0.0826 -2.674435,-0.31817 c -1.470941,-0.17499 -2.68124,-0.32497 -2.689553,-0.33328 -0.01807,-0.0181 0.09289,-1.0286 0.115437,-1.05115 0.0086,-0.009 1.216465,0.12741 2.6841,0.30229 1.467642,0.17486 2.675539,0.31084 2.684217,0.30216 0.0087,-0.009 0.02357,-0.0738 0.03309,-0.1448 l 0.01728,-0.12901 -0.174506,-0.0657 c -0.807088,-0.30386 -2.065986,-0.79776 -2.088388,-0.81933 -0.04158,-0.04 0.192879,-0.63697 0.245054,-0.62388 0.02358,0.006 0.540399,0.20711 1.148514,0.44712 l 1.105665,0.43638 0.07301,-0.0894 c 0.04015,-0.0492 0.07308,-0.0988 0.07317,-0.11028 2.65e-4,-0.0559 -0.700228,-0.59507 -2.422546,-1.86417 -1.037376,-0.7644 -1.891207,-1.39461 -1.897404,-1.40048 -0.01405,-0.0133 0.575874,-0.84166 0.606705,-0.85197 0.01236,-0.004 0.98815,0.71499 2.168467,1.59804 l 2.146036,1.60555 0.122094,-0.0859 c 0.06716,-0.0472 0.118491,-0.10334 0.114078,-0.12467 -0.0044,-0.0213 -0.334661,-0.44356 -0.733891,-0.93829 -0.399227,-0.49473 -0.732686,-0.91728 -0.741023,-0.93901 -0.0126,-0.0328 0.183713,-0.22329 0.413795,-0.4016 0.04583,-0.0355 0.151503,0.0822 0.824166,0.91808 l 0.771599,0.95881 0.130368,-0.0665 c 0.104442,-0.0533 0.127273,-0.0806 0.114777,-0.13732 -0.0086,-0.0389 -0.48568,-1.14447 -1.060223,-2.45674 -0.574548,-1.31227 -1.044183,-2.40249 -1.043638,-2.42271 0.0011,-0.0395 0.903631,-0.46003 0.930211,-0.43344 0.0088,0.009 0.49929,1.12595 1.090081,2.48266 0.590793,1.35672 1.078148,2.47088 1.083006,2.47593 0.0049,0.005 0.07377,-0.008 0.153135,-0.0294 l 0.144293,-0.0386 -0.171386,-1.19007 c -0.09426,-0.65454 -0.17186,-1.19945 -0.17244,-1.21093 -0.0013,-0.0246 0.429247,-0.12547 0.535528,-0.12547 0.04033,0 0.08836,0.0183 0.10673,0.0406 0.01839,0.0224 0.09699,0.54542 0.17471,1.16236 0.152619,1.2115 0.159512,1.23596 0.348403,1.23596 0.08331,0 0.09495,-0.013 0.108979,-0.12195 0.0087,-0.0671 0.153247,-1.28167 0.32135,-2.69912 l 0.305644,-2.57716 0.0813,-1.8e-4 c 0.04471,-9e-5 0.290055,0.0242 0.5452,0.054 l 0.463905,0.0541 -0.01744,0.10049 c -0.0096,0.0553 -0.148773,1.21266 -0.309319,2.57198 -0.16055,1.35932 -0.300771,2.53258 -0.311606,2.60725 -0.01958,0.13501 -0.01902,0.13595 0.104958,0.17018 0.09414,0.026 0.133551,0.0246 0.160978,-0.006 0.01998,-0.022 0.223827,-0.53459 0.453001,-1.13896 0.229171,-0.60437 0.425294,-1.10373 0.435827,-1.10969 0.01056,-0.006 0.160951,0.0402 0.334269,0.10262 l 0.315119,0.11344 -0.05967,0.15074 c -0.03281,0.0829 -0.236818,0.5935 -0.453327,1.13468 -0.216508,0.54117 -0.393462,0.99482 -0.393226,1.00811 2.27e-4,0.0133 0.047,0.0543 0.103912,0.0912 l 0.103484,0.0671 0.214961,-0.24595 c 0.118226,-0.13527 0.849312,-1.10933 1.624629,-2.1646 0.775316,-1.05526 1.413362,-1.92337 1.417881,-1.92915 0.0045,-0.006 0.196162,0.12499 0.425881,0.29061 0.229717,0.16561 0.422923,0.30486 0.429347,0.30944 0.0064,0.005 -0.707858,0.97532 -1.587291,2.15721 -1.13004,1.51868 -1.593357,2.16537 -1.579835,2.20507 0.0105,0.0309 0.04917,0.0922 0.08587,0.13618 0.0617,0.074 0.0726,0.0764 0.144401,0.0325 0.04272,-0.0261 0.474001,-0.36814 0.958411,-0.76005 0.749692,-0.60655 0.887238,-0.70574 0.924385,-0.66665 0.17838,0.1877 0.371526,0.4329 0.358109,0.4546 -0.0089,0.0144 -0.429308,0.35863 -0.934228,0.76493 -0.504918,0.4063 -0.924314,0.74399 -0.93199,0.75043 -0.0077,0.006 0.01114,0.0643 0.04183,0.12867 0.04453,0.0934 0.07031,0.11384 0.127775,0.10145 0.0396,-0.008 1.152935,-0.47966 2.474084,-1.04692 1.321144,-0.56728 2.41417,-1.0192 2.428941,-1.00429 0.0614,0.062 0.423813,0.89877 0.399055,0.92136 -0.01482,0.0135 -1.102539,0.48893 -2.417146,1.05646 -1.3146,0.56754 -2.415796,1.05452 -2.447094,1.08219 -0.06436,0.0569 -0.06984,0.0995 -0.0272,0.21166 l 0.0297,0.0781 1.197356,-0.17135 c 0.658548,-0.0942 1.205283,-0.15854 1.214967,-0.14287 0.04128,0.0668 0.135377,0.62476 0.109384,0.64861 -0.01558,0.0143 -0.54378,0.0925 -1.173782,0.17384 -0.630004,0.0813 -1.160478,0.15714 -1.178835,0.16848 -0.01834,0.0114 -0.03337,0.078 -0.03337,0.14817 0,0.10589 0.01241,0.13023 0.07317,0.14338 0.04024,0.009 7.338853,0.87311 16.219132,1.92087 8.88028,1.04777 17.192282,2.02891 18.471112,2.18033 1.27884,0.15142 3.37879,0.40003 4.66656,0.55247 2.73018,0.3232 4.35683,0.52555 4.47144,0.55626 0.0447,0.012 0.0943,0.0187 0.11019,0.0149 0.0159,-0.004 0.0197,0.0487 0.008,0.11662 -0.0112,0.0679 -0.0206,0.16456 -0.0207,0.2148 -2.6e-4,0.0502 -0.0119,0.0842 -0.0261,0.0755 -0.0142,-0.009 -0.0199,0.0342 -0.0127,0.0955 0.007,0.0613 0.002,0.13705 -0.0113,0.16844 -0.0134,0.0314 -0.0213,0.10315 -0.0176,0.15947 0.004,0.0563 -0.008,0.11167 -0.0266,0.12299 -0.0183,0.0113 -0.0251,0.0421 -0.015,0.0683 0.0137,0.0356 -0.007,0.0477 -0.082,0.0477 -0.25775,0 -0.94088,-0.0809 -28.684362,-3.39758 -8.306781,-0.99305 -15.143141,-1.80555 -15.191911,-1.80555 -0.07836,0 -0.09128,0.0154 -0.111025,0.13227 -0.01228,0.0727 -0.01714,0.13746 -0.0108,0.1438 0.0063,0.006 0.508929,0.20406 1.116846,0.43936 0.60792,0.2353 1.108708,0.43121 1.112859,0.43537 0.0105,0.0105 -0.200647,0.59818 -0.222946,0.62047 -0.01,0.01 -0.514271,-0.17951 -1.120672,-0.42106 -0.606401,-0.24157 -1.117176,-0.4385 -1.135062,-0.43763 -0.05679,0.003 -0.179814,0.18527 -0.15988,0.23722 0.01056,0.0275 0.958114,0.74071 2.105729,1.58502 1.147617,0.84431 2.111123,1.5585 2.141127,1.58709 0.0507,0.0483 0.0339,0.0812 -0.237932,0.4666 -0.160861,0.22804 -0.306678,0.41462 -0.324035,0.41462 -0.01736,0 -0.990177,-0.71706 -2.161831,-1.59346 -1.171652,-0.8764 -2.137921,-1.59346 -2.147263,-1.59346 -0.05169,0 -0.240834,0.17929 -0.227044,0.21523 0.009,0.0234 0.348985,0.45529 0.755565,0.95975 l 0.739241,0.9172 -0.225581,0.20504 c -0.124066,0.11277 -0.24021,0.2047 -0.258096,0.20428 -0.02432,-7.9e-4 -1.252567,-1.50391 -1.500376,-1.83642 -0.03298,-0.0442 -0.05001,-0.0434 -0.156887,0.008 -0.09166,0.0437 -0.116549,0.0727 -0.105701,0.12317 0.0078,0.0363 0.478213,1.15395 1.04535,2.48368 0.56714,1.32973 1.026465,2.42131 1.020723,2.42573 -0.03981,0.0307 -0.888558,0.40846 -0.917337,0.40834 -0.0199,-9e-5 -0.504444,-1.09094 -1.07679,-2.42412 -0.730798,-1.70227 -1.061686,-2.43782 -1.111364,-2.47049 -0.05545,-0.0365 -0.09272,-0.0389 -0.172477,-0.011 -0.08722,0.0304 -0.09921,0.0477 -0.08403,0.1211 0.0642,0.31044 0.337648,2.299 0.318439,2.31574 -0.01304,0.0113 -0.145888,0.0445 -0.295219,0.0735 -0.275096,0.0536 -0.394767,0.0376 -0.395433,-0.0528 -7.94e-4,-0.0844 -0.286031,-2.23906 -0.298191,-2.25122 -0.0071,-0.007 -0.07298,-0.0225 -0.146415,-0.0343 l -0.133522,-0.0214 -0.02011,0.12555 c -0.01103,0.0691 -0.100042,0.80602 -0.197742,1.63771 -0.07419,0.56301 -0.121963,1.13005 -0.210229,1.69099 l -1.073702,-0.0567 z m 49.836456,-2.2457 c -0.01,-0.01 -0.0362,-3e-5 -0.0583,0.0222 -0.0319,0.0321 -0.0282,0.0359 0.0182,0.0182 0.0321,-0.0122 0.0501,-0.0304 0.0401,-0.0404 z"
         style="fill:url(#linearGradient1883);fill-opacity:1;stroke-width:0.03251957" />
      <path
         inkscape:connector-curvature="0"
         id="path1277"
         d="m 41.612721,187.38255 0.0082,-7.32503 0.485968,-0.0281 c 0.267282,-0.0155 0.753856,-0.0175 1.081276,-0.005 l 0.595309,0.0235 v 7.32963 7.32964 H 42.693997 41.60452 Z m 6.250675,7.28463 c -0.0089,-0.023 -0.01217,-0.42948 -0.0074,-0.90317 l 0.0087,-0.86126 3.056842,-0.0163 c 3.010959,-0.016 3.058547,-0.0173 3.17064,-0.0831 0.06259,-0.0368 0.146494,-0.12457 0.186452,-0.19512 l 0.07265,-0.12826 7.94e-4,-1.90841 c 2.64e-4,-1.2741 -0.01101,-1.93884 -0.03415,-1.99995 -0.0435,-0.11482 -0.147841,-0.22815 -0.274249,-0.29789 -0.0871,-0.048 -0.332883,-0.0558 -2.29263,-0.072 -2.464269,-0.0204 -2.32764,-0.007 -2.877982,-0.27405 -0.679294,-0.32917 -1.16931,-0.92599 -1.38879,-1.69149 -0.07386,-0.2576 -0.07459,-0.27832 -0.07459,-2.11377 0,-1.83544 7.94e-4,-1.85616 0.07459,-2.11377 0.263562,-0.91925 0.916734,-1.58433 1.844064,-1.87768 l 0.227637,-0.072 3.373903,-0.01 3.373906,-0.01 v 0.89467 0.89468 l -3.164917,0.009 -3.164916,0.009 -0.135179,0.0895 c -0.07439,0.0492 -0.165076,0.14807 -0.201662,0.21978 -0.06492,0.12725 -0.06628,0.1724 -0.05755,1.91305 l 0.0089,1.78272 0.09111,0.11942 c 0.187196,0.24538 0.04645,0.23113 2.477937,0.25086 2.102647,0.017 2.187567,0.0201 2.42932,0.0877 0.864161,0.24159 1.536806,0.86156 1.816997,1.67469 0.150582,0.43701 0.166171,0.71199 0.15259,2.69137 -0.01183,1.72419 -0.01548,1.81602 -0.08203,2.05534 -0.20873,0.75086 -0.716222,1.37262 -1.390071,1.70307 -0.561051,0.27514 -0.275653,0.25587 -3.943776,0.26628 -2.63779,0.008 -3.263889,0.001 -3.276901,-0.0327 z m 12.309941,-7.29232 v -7.3336 h 6.77798 c 4.64622,0 6.85683,0.011 7.02872,0.0349 1.43128,0.19907 2.61375,1.2392 3.02887,2.66425 l 0.09,0.30893 0.009,5.82957 0.009,5.82958 -1.08188,-0.009 -1.08188,-0.009 -0.0163,-5.77222 -0.0163,-5.77223 -0.0863,-0.23621 c -0.20886,-0.57152 -0.61865,-0.9517 -1.12947,-1.04786 -0.20794,-0.0391 -3.86937,-0.0449 -3.93034,-0.006 -0.0321,0.0204 -0.0423,1.35616 -0.0488,6.43025 l -0.008,6.40449 -1.08127,0.009 -1.08128,0.009 v -6.37642 c 0,-4.33323 -0.0108,-6.39657 -0.0336,-6.43931 -0.0328,-0.0614 -0.0953,-0.0629 -2.56092,-0.0624 -1.38999,2.6e-4 -2.54551,0.0121 -2.56782,0.0263 -0.0321,0.0204 -0.0423,1.35616 -0.0488,6.43025 l -0.008,6.40448 -1.08127,0.009 -1.08128,0.009 z m 23.504662,7.26905 c -0.39444,-0.0841 -0.58178,-0.14864 -0.91982,-0.31689 -0.56921,-0.28333 -1.04999,-0.70422 -1.39257,-1.21909 -0.36686,-0.55134 -0.55198,-1.09233 -0.60994,-1.78238 -0.0224,-0.26617 -0.0297,-1.73679 -0.0213,-4.26007 0.0116,-3.47721 0.0182,-3.87579 0.0678,-4.0812 0.25028,-1.03745 0.79007,-1.82102 1.62754,-2.36261 0.34208,-0.22121 0.65559,-0.35832 1.09029,-0.47681 l 0.31134,-0.0849 1.99995,-0.0113 c 2.13,-0.012 2.32092,-0.003 2.82207,0.14194 1.34133,0.38635 2.37885,1.5775 2.57495,2.95622 0.0266,0.18674 0.0341,1.42564 0.0265,4.39014 l -0.0105,4.12999 -0.0728,0.27196 c -0.3666,1.36962 -1.31229,2.31507 -2.67804,2.6774 -0.26604,0.0706 -0.31836,0.0723 -2.40199,0.0801 -1.97043,0.007 -2.15127,0.004 -2.41345,-0.0525 z m 4.23081,-1.75937 c 0.52106,-0.12012 0.9478,-0.55501 1.1309,-1.1525 0.0567,-0.18507 0.0598,-0.40925 0.0598,-4.35762 v -4.1625 l -0.0901,-0.25456 c -0.11398,-0.32223 -0.25951,-0.54999 -0.47543,-0.74413 -0.20224,-0.18182 -0.44266,-0.30521 -0.68283,-0.35042 -0.10426,-0.0196 -0.86176,-0.033 -1.87118,-0.033 -1.84533,0 -1.90468,0.005 -2.23826,0.1865 -0.21165,0.11519 -0.48377,0.4142 -0.60648,0.6664 -0.20845,0.42837 -0.19823,0.18565 -0.19823,4.70794 0,4.5229 -0.0103,4.2795 0.19848,4.70849 0.11305,0.23231 0.36564,0.50706 0.58278,0.63391 0.30396,0.17756 0.35335,0.18154 2.27558,0.183 1.08378,7.9e-4 1.82772,-0.0114 1.91493,-0.0315 z"
         style="fill:#4b2b70;fill-opacity:1;stroke-width:0.03251957" />
    </g>
  </g>
</svg>
