<?xml version="1.0" encoding="UTF-8" standalone="no"?>
<!-- Created with Inkscape (http://www.inkscape.org/) -->

<svg
   version="1.1"
   id="svg2"
   width="237.16"
   height="107.14667"
   viewBox="0 0 237.16 107.14667"
   sodipodi:docname="upsaclay.svg"
   inkscape:version="1.4 (e7c3feb1, 2024-10-09)"
   xmlns:inkscape="http://www.inkscape.org/namespaces/inkscape"
   xmlns:sodipodi="http://sodipodi.sourceforge.net/DTD/sodipodi-0.dtd"
   xmlns="http://www.w3.org/2000/svg"
   xmlns:svg="http://www.w3.org/2000/svg">
  <defs
     id="defs6" />
  <sodipodi:namedview
     id="namedview4"
     pagecolor="#ffffff"
     bordercolor="#000000"
     borderopacity="0.25"
     inkscape:showpageshadow="2"
     inkscape:pageopacity="0.0"
     inkscape:pagecheckerboard="0"
     inkscape:deskcolor="#d1d1d1"
     inkscape:zoom="1.8757804"
     inkscape:cx="98.092505"
     inkscape:cy="-4.2648915"
     inkscape:window-width="1368"
     inkscape:window-height="551"
     inkscape:window-x="0"
     inkscape:window-y="25"
     inkscape:window-maximized="0"
     inkscape:current-layer="g8" />
  <g
     id="g8"
     inkscape:groupmode="layer"
     inkscape:label="ink_ext_XXXXXX"
     transform="matrix(1.3333333,0,0,-1.3333333,0,107.14667)">
    <g
       id="g10"
       transform="scale(0.1)">
      <path
         d="m 1596.98,664.824 c -23.36,0 -42.29,-18.941 -42.29,-42.304 0,-23.36 18.93,-42.301 42.29,-42.301 23.36,0 42.3,18.941 42.3,42.301 0,23.363 -18.94,42.304 -42.3,42.304"
         style="fill:#621c40;fill-opacity:1;fill-rule:nonzero;stroke:none"
         id="path14" />
      <path
         d="m 1505.82,516.734 c 14.44,0 26.16,11.719 26.16,26.176 0,14.438 -11.72,26.153 -26.16,26.153 -14.45,0 -26.16,-11.715 -26.16,-26.153 0,-14.457 11.71,-26.176 26.16,-26.176"
         style="fill:#621c40;fill-opacity:1;fill-rule:nonzero;stroke:none"
         id="path16" />
      <path
         d="M 551.098,472.309 H 522.969 V 313.887 h 28.129 v 158.422"
         style="fill:#621c40;fill-opacity:1;fill-rule:nonzero;stroke:none"
         id="path18" />
      <path
         d="m 842.148,475.57 c -43.378,0 -76.097,-35.519 -76.097,-82.621 0,-47.097 33.988,-82.605 79.07,-82.605 26.617,0 46.676,9.136 65.035,29.605 l 1.785,1.992 -18.125,16.223 -1.785,-1.855 c -13.531,-14.192 -28.254,-20.801 -46.332,-20.801 -26.816,0 -46.949,18.555 -50.879,46.496 h 120.778 l 0.269,2.371 c 0.305,2.805 0.305,5.242 0.305,7.395 0,50.121 -29.754,83.8 -74.024,83.8 M 794.82,404.211 c 3.852,27.699 22.746,46.781 46.727,46.781 29.723,0 43.082,-23.644 45.914,-46.781 H 794.82"
         style="fill:#621c40;fill-opacity:1;fill-rule:nonzero;stroke:none"
         id="path20" />
      <path
         d="m 252.926,313.895 h 27.836 v 158.418 h -27.836 v -90.321 c 0,-26.672 -17.77,-45.281 -43.235,-45.281 -24.847,0 -39.675,16.258 -39.675,43.516 v 92.086 h -28.129 v -97.711 c 0,-38.86 24.066,-63.965 61.289,-63.965 20.84,0 37.199,7.898 49.75,24.082 v -20.824"
         style="fill:#621c40;fill-opacity:1;fill-rule:nonzero;stroke:none"
         id="path22" />
      <path
         d="m 443.613,405.984 v -92.089 h 28.129 v 97.722 c 0,38.848 -24.066,63.957 -61.289,63.957 -20.789,0 -37.48,-8.058 -49.75,-23.957 v 20.696 H 332.574 V 313.895 h 28.129 v 90.32 c 0,26.668 17.774,45.289 43.235,45.289 24.835,0 39.675,-16.262 39.675,-43.52"
         style="fill:#621c40;fill-opacity:1;fill-rule:nonzero;stroke:none"
         id="path24" />
      <path
         d="m 680.469,312.715 68.922,159.598 h -30.422 l -50.02,-122.618 -49.73,122.618 h -31.02 L 656.82,312.715 h 23.649"
         style="fill:#621c40;fill-opacity:1;fill-rule:nonzero;stroke:none"
         id="path26" />
      <path
         d="m 984.863,377.551 c 0,41.035 22.787,67.523 58.047,67.523 h 4.44 v 29.797 l -2.56,0.09 c -24.58,1.031 -46.372,-11.746 -59.927,-34.336 v 31.699 H 956.738 V 313.906 h 28.125 v 63.645"
         style="fill:#621c40;fill-opacity:1;fill-rule:nonzero;stroke:none"
         id="path28" />
      <path
         d="m 1375.37,311.23 c 10.66,0 19.8,2.161 28.77,6.829 l 1.44,0.73 v 25.41 l -3.83,-1.836 c -7.47,-3.613 -13.57,-5.078 -21.04,-5.078 -15.77,0 -23.1,7.246 -23.1,22.813 v 86.742 h 48.57 v 25.473 h -48.57 v 52.238 l -28.13,-15.528 v -36.71 h -29.71 V 446.84 h 29.71 v -89.723 c 0,-29.59 16.3,-45.887 45.89,-45.887"
         style="fill:#621c40;fill-opacity:1;fill-rule:nonzero;stroke:none"
         id="path30" />
      <path
         d="m 1510.47,310.344 c 26.62,0 46.7,9.136 65.05,29.597 l 1.78,2 -18.12,16.223 -1.78,-1.855 c -13.54,-14.18 -28.27,-20.801 -46.33,-20.801 -26.83,0 -46.96,18.555 -50.89,46.484 h 120.76 l 0.28,2.371 c 0.32,2.825 0.32,5.266 0.32,7.414 0,50.118 -29.75,83.797 -74.04,83.797 -43.38,0 -76.08,-35.531 -76.08,-82.613 0,-47.102 33.98,-82.617 79.05,-82.617 m -3.55,140.64 c 29.7,0 43.06,-23.64 45.89,-46.781 h -92.63 c 3.84,27.711 22.74,46.781 46.74,46.781"
         style="fill:#621c40;fill-opacity:1;fill-rule:nonzero;stroke:none"
         id="path32" />
      <path
         d="m 1141.98,406.461 -0.56,0.18 c -18.98,5.769 -36.93,11.23 -36.93,24.211 0,11.687 10.83,19.546 26.96,19.546 13.92,0 29.51,-5.093 43.85,-14.378 l 2.31,-1.5 13.09,21.73 -2.13,1.41 c -16.41,10.84 -37.54,17.32 -56.53,17.32 -32.25,0 -54.78,-19.121 -54.78,-46.488 v -0.594 c 0,-30.867 30.39,-39.507 52.57,-45.796 20.55,-5.747 36.25,-11.196 36.25,-24.973 0,-12.941 -11.66,-21.621 -29.01,-21.621 -17.06,0 -34.82,6.582 -51.41,19.012 l -2.18,1.64 -14.59,-20.555 1.95,-1.574 c 17.59,-14.234 42.5,-23.101 65.05,-23.101 34.18,0 57.15,19.519 57.15,48.574 v 0.594 c 0,31.047 -30.74,40.261 -51.06,46.363"
         style="fill:#621c40;fill-opacity:1;fill-rule:nonzero;stroke:none"
         id="path34" />
      <path
         d="m 1266.16,472.309 h -28.13 V 313.887 h 28.13 v 158.422"
         style="fill:#621c40;fill-opacity:1;fill-rule:nonzero;stroke:none"
         id="path36" />
      <path
         d="m 299.941,262.781 -51.75,-121.597 h 27.09 l 11.043,27.07 h 51.039 l 11.039,-27.07 h 27.77 l -51.731,121.597 z m -4.14,-71.051 16.039,39.161 16.043,-39.161 z"
         style="fill:#621c40;fill-opacity:1;fill-rule:nonzero;stroke:none"
         id="path38" />
      <path
         d="m 1386.41,262.781 -51.75,-121.597 h 27.09 l 11.03,27.07 h 51.05 l 11.04,-27.07 h 27.77 l -51.75,121.597 z m -4.14,-71.051 16.04,39.161 16.04,-39.161 z"
         style="fill:#621c40;fill-opacity:1;fill-rule:nonzero;stroke:none"
         id="path40" />
      <path
         d="m 1522.65,213.457 -28.81,48.469 h -31.06 l 46.4,-73.125 v -47.61 h 26.56 v 48.106 l 46.41,72.629 h -30.2 l -29.3,-48.469"
         style="fill:#621c40;fill-opacity:1;fill-rule:nonzero;stroke:none"
         id="path42" />
      <path
         d="M 191.809,261.914 H 142.477 V 141.191 h 26.57 v 36.204 h 20.172 c 27.09,0 48.816,14.492 48.816,42.449 v 0.332 c 0,24.679 -17.422,41.738 -46.226,41.738 m 19.32,-42.598 c 0,-10.351 -7.762,-18.293 -21.039,-18.293 h -21.043 v 36.915 h 20.519 c 13.282,0 21.563,-6.375 21.563,-18.27 v -0.352"
         style="fill:#621c40;fill-opacity:1;fill-rule:nonzero;stroke:none"
         id="path44" />
      <path
         d="m 1142.53,163.613 c -20.7,0 -35.01,17.239 -35.01,37.942 v 0.34 c 0,20.703 14.65,37.609 35.01,37.609 12.07,0 21.55,-5.188 30.87,-13.637 l 16.9,19.492 c -11.22,11.036 -24.83,18.618 -47.61,18.618 -37.07,0 -62.95,-28.098 -62.95,-62.422 v -0.344 c 0,-34.668 26.39,-62.102 61.92,-62.102 23.29,0 37.08,8.293 49.51,21.575 l -16.92,17.082 c -9.48,-8.633 -17.93,-14.153 -31.72,-14.153"
         style="fill:#621c40;fill-opacity:1;fill-rule:nonzero;stroke:none"
         id="path46" />
      <path
         d="m 871.875,213.457 c -20.859,5.344 -26.059,7.93 -26.059,15.867 v 0.332 c 0,5.879 5.356,10.539 15.547,10.539 10.168,0 20.7,-4.472 31.371,-11.914 l 13.809,20.012 c -12.246,9.82 -27.25,15.359 -44.84,15.359 -24.656,0 -42.269,-14.492 -42.269,-36.406 v -0.344 c 0,-23.953 15.707,-30.679 40.031,-36.914 20.168,-5.175 24.297,-8.609 24.297,-15.34 v -0.351 c 0,-7.07 -6.551,-11.375 -17.41,-11.375 -13.797,0 -25.192,5.703 -36.039,14.656 l -15.708,-18.801 c 14.489,-12.937 32.95,-19.324 51.231,-19.324 26.051,0 44.332,13.469 44.332,37.434 v 0.347 c 0,21.047 -13.813,29.836 -38.293,36.223"
         style="fill:#621c40;fill-opacity:1;fill-rule:nonzero;stroke:none"
         id="path48" />
      <path
         d="m 1251.88,261.914 h -26.57 V 141.191 h 86.76 v 24.129 h -60.19 v 96.594"
         style="fill:#621c40;fill-opacity:1;fill-rule:nonzero;stroke:none"
         id="path50" />
      <path
         d="M 985.039,262.781 933.313,141.184 h 27.058 l 11.047,27.07 h 51.062 l 11.03,-27.07 h 27.76 l -51.76,121.597 z m -4.141,-71.051 16.043,39.161 16.039,-39.161 z"
         style="fill:#621c40;fill-opacity:1;fill-rule:nonzero;stroke:none"
         id="path52" />
      <path
         d="m 733.723,182.063 h 53.117 v 25.183 h -53.117 v -25.183"
         style="fill:#621c40;fill-opacity:1;fill-rule:nonzero;stroke:none"
         id="path54" />
      <path
         d="m 508.461,221.73 v 0.34 c 0,24.856 -17.078,39.856 -45.527,39.856 h -55.2 V 141.191 h 26.559 v 38.622 h 20.879 l 25.883,-38.622 h 31.031 l -29.492,43.118 c 15.359,5.679 25.867,17.925 25.867,37.421 m -26.906,-1.378 c 0,-10.176 -7.414,-17.082 -20.356,-17.082 h -26.906 v 34.668 h 26.398 c 12.942,0 20.864,-5.86 20.864,-17.235 v -0.351"
         style="fill:#621c40;fill-opacity:1;fill-rule:nonzero;stroke:none"
         id="path56" />
      <path
         d="m 546.594,141.191 h 26.554 V 261.926 H 546.594 V 141.191"
         style="fill:#621c40;fill-opacity:1;fill-rule:nonzero;stroke:none"
         id="path58" />
      <path
         d="m 665.25,213.457 c -20.879,5.344 -26.051,7.93 -26.051,15.867 v 0.332 c 0,5.879 5.352,10.539 15.524,10.539 10.187,0 20.699,-4.472 31.39,-11.914 l 13.789,20.012 c -12.23,9.82 -27.25,15.359 -44.843,15.359 -24.661,0 -42.246,-14.492 -42.246,-36.406 v -0.344 c 0,-23.953 15.687,-30.679 40.007,-36.914 20.192,-5.175 24.321,-8.609 24.321,-15.34 v -0.351 c 0,-7.07 -6.551,-11.375 -17.411,-11.375 -13.796,0 -25.187,5.703 -36.039,14.656 l -15.707,-18.801 c 14.489,-12.937 32.938,-19.324 51.227,-19.324 26.039,0 44.328,13.469 44.328,37.434 v 0.347 c 0,21.047 -13.809,29.836 -38.289,36.223"
         style="fill:#621c40;fill-opacity:1;fill-rule:nonzero;stroke:none"
         id="path60" />
    </g>
  </g>
</svg>
